<?xml version="1.0" encoding="utf-8"?>
<!-- Generator: Adobe Illustrator 21.0.0, SVG Export Plug-In . SVG Version: 6.00 Build 0)  -->
<svg version="1.1" id="图层_1" xmlns="http://www.w3.org/2000/svg" xmlns:xlink="http://www.w3.org/1999/xlink" x="0px" y="0px" viewBox="0 0 100 100" style="enable-background:new 0 0 100 100;" xml:space="preserve">
    <style type="text/css">
        path {
            fill: #fff;
        }
    </style>
    <g>
        <path d="M37.5,22.8c-1.9,0-3.5,1.6-3.5,3.5v3.4c0,1.9,1.6,3.5,3.5,3.5c1.9,0,3.5-1.6,3.5-3.5v-3.4C41,24.4,39.5,22.8,37.5,22.8
            L37.5,22.8z M62.5,33.2c1.9,0,3.5-1.6,3.5-3.5v-3.4c0-1.9-1.6-3.5-3.5-3.5c-1.9,0-3.5,1.6-3.5,3.5v3.4C59,31.6,60.5,33.2,62.5,33.2
            L62.5,33.2z M41.7,36.2c-1.6,1-2.1,3.2-1.1,4.8c1.3,2,4.7,5.4,9.6,5.4c4.9,0,8.4-3.4,9.7-5.4c1-1.6,0.6-3.8-1.1-4.8
            c-1.6-1-3.8-0.6-4.8,1.1c0,0-1.5,2.2-3.8,2.2c-2.2,0-3.6-2-3.7-2.2C45.5,35.7,43.4,35.2,41.7,36.2L41.7,36.2z M84.9,5.8H56.6
            c-1.9,0-3.5,1.6-3.5,3.5c0,1.9,1.6,3.5,3.5,3.5h28.2c4.5,0,8.1,3.7,8.1,8.1v44.3L71.9,46.8c-1.4-1.2-3.4-1.1-4.7,0.1l-22,21.2
            L27.4,50.6c-1.3-1.3-3.5-1.3-4.8-0.1L7,64.9v-44c0-4.5,3.7-8.1,8.1-8.1h28.2c1.9,0,3.5-1.6,3.5-3.5c0-1.9-1.6-3.5-3.5-3.5H15.1
            C6.8,5.8,0,12.6,0,20.9v58.1c0,8.3,6.8,15.1,15.1,15.1h28.2c1.9,0,3.5-1.6,3.5-3.5c0-1.9-1.6-3.5-3.5-3.5H15.1
            c-4.5,0-8.1-3.7-8.1-8.1v-4.6l17.9-16.6l17.8,17.5c1.3,1.3,3.5,1.3,4.9,0l22.2-21.3L93,74.5v4.5c0,4.5-3.7,8.1-8.1,8.1H56.6
            c-1.9,0-3.5,1.6-3.5,3.5c0,1.9,1.6,3.5,3.5,3.5h28.2c8.3,0,15.1-6.8,15.1-15.1V20.9C100,12.6,93.2,5.8,84.9,5.8L84.9,5.8z
            M84.9,5.8"/>
    </g>
</svg>
