<?xml version="1.0" encoding="utf-8"?>
<!-- Generator: Adobe Illustrator 21.0.0, SVG Export Plug-In . SVG Version: 6.00 Build 0)  -->
<svg version="1.1" id="图层_1" xmlns="http://www.w3.org/2000/svg" xmlns:xlink="http://www.w3.org/1999/xlink" x="0px" y="0px" viewBox="0 0 100 100" style="enable-background:new 0 0 100 100;" xml:space="preserve">
    <style type="text/css">
        path {
            fill: #dee8ff;
        }
    </style>
    <g>
        <path d="M10.7,75.7h-8c-0.8,0-1.3,0.6-1.3,1.3c0,0.4,0.1,0.7,0.4,1c0.3,0.2,0.6,0.4,1,0.4h8c0.8,0,1.3-0.6,1.3-1.3
            C12,76.3,11.4,75.7,10.7,75.7z"/>
        <path d="M11.4,61.8h-1.3v-1.3c0-0.4-0.2-0.6-0.6-0.6c-0.4,0-0.8,0.2-0.8,0.6v1.3H7.4c-0.2,0-0.6,0.4-0.6,0.8c0,0.2,0.2,0.6,0.6,0.6
            h1.3v1.3c0,0.2,0,0.2,0.2,0.4C9.1,65,9.3,65,9.5,65s0.6-0.2,0.6-0.6v-1.3h1.3c0.2,0,0.6-0.2,0.6-0.6C12,62.2,11.8,61.8,11.4,61.8z"
            />
        <path d="M15.2,23.5c0,0.4,0,0.6,0.2,0.8c0.2,0.2,0.6,0.4,0.8,0.4c0.6,0,0.9-0.4,0.9-1v-1.9H19c0.6,0,0.9-0.4,0.9-1
            c0-0.6-0.4-0.9-0.9-0.9h-1.9h-0.2v-2.3c0-0.6-0.4-1-1-1c-0.6,0-0.9,0.4-0.9,1v1.9h-2.1c-0.6,0-0.9,0.4-0.9,1c0,0.4,0.2,0.6,0.4,0.8
            c0.2,0.4,0.6,0.4,0.8,0.4h2.1V23.5z"/>
        <path d="M4,42.3c2.3,0,4-1.9,4-4.2c0-2.3-1.7-4-4-4c-1.4,0-2.7,0.8-3.4,2.1c-0.8,1.1-0.8,2.7,0,4C1.3,41.6,2.5,42.3,4,42.3z
            M4,36.2c0.8,0,1.3,0.4,1.7,1.1c0.4,0.6,0.4,1.3,0,1.9c-0.4,0.6-1,1-1.7,1c-1.1,0-1.9-0.8-2.1-1.9C1.9,37.2,2.8,36.3,4,36.2z"/>
        <path d="M30.9,38.3h14.7c0.5,0,0.9-0.2,1.2-0.7c0.2-0.4,0.2-0.9,0-1.4c-0.2-0.4-0.7-0.7-1.2-0.7H30.9c-0.4,0-0.7,0.1-1,0.4
            c-0.3,0.3-0.4,0.6-0.4,1l0,0c0,0.4,0.1,0.7,0.4,1C30.2,38.2,30.5,38.3,30.9,38.3z"/>
        <path d="M87.1,26.1c-1.3,0-2.7,0.9-3.4,2.1c-0.8,1.2-0.8,2.8,0,4c0.6,1.3,1.9,2.1,3.4,2.1l0,0c2.1,0,4-1.9,4-4.2
            C91.1,27.9,89.3,26.1,87.1,26.1z M88.8,31.3c-0.4,0.6-1,1-1.7,1v0c-1.1,0-2.1-1-2.1-1.9c0-1.2,0.9-2.1,2.1-2.1c0.7,0,1.3,0.4,1.7,1
            C89.2,29.9,89.2,30.7,88.8,31.3z"/>
        <path d="M99.4,56.5h-1.1v-1.3c0-0.2,0-0.4-0.2-0.4c-0.2-0.2-0.4-0.2-0.6-0.2c-0.4,0-0.6,0.2-0.6,0.6v1.3h-1.3c-0.2,0-0.4,0-0.6,0.2
            c-0.2,0.2-0.2,0.4-0.2,0.6c0,0.4,0.4,0.6,0.6,0.6h1.3v1.3c0,0.4,0.4,0.6,0.6,0.6c0.4,0,0.8-0.4,0.8-0.6v-1.3h1.3
            c0.4,0,0.6-0.4,0.6-0.6C100,56.8,99.6,56.5,99.4,56.5z"/>
        <path d="M80.2,69.3h-7.4c0.5-0.8,0.8-1.7,0.8-2.7V27.7c0-1.4-0.5-2.8-1.5-3.8c-0.9-1-2.5-1.5-3.8-1.5H36c-1.4,0-2.8,0.5-3.8,1.5
            c-1,1-1.5,2.5-1.5,3.8V29h-4c-1.4,0-2.8,0.5-3.8,1.5c-1,1-1.5,2.5-1.5,3.8V73c0,0.9,0.3,1.9,0.8,2.7H16c-0.8,0-1.3,0.6-1.3,1.3
            c0,0.4,0.1,0.7,0.4,1c0.3,0.2,0.6,0.4,0.9,0.4h33.7l0,0l3.2,3.4c1.1,1,2.8,1,3.8,0c0.9-0.9,1-2.2,0.4-3.2h7c0.4,0,0.7-0.1,1-0.4
            c0.3-0.3,0.4-0.6,0.4-1c0-0.8-0.6-1.3-1.3-1.3h-0.7c0.5-0.8,0.8-1.7,0.7-2.7v-1.3h16c0.4,0,0.7-0.1,1-0.4c0.3-0.3,0.4-0.6,0.4-0.9
            C81.5,69.8,80.9,69.3,80.2,69.3z M61.5,73c0,0.7-0.3,1.4-0.8,1.9c-0.5,0.5-1.2,0.8-1.9,0.8h-4.2l0,0l-4.8-4.4
            c-0.7-0.7-1.7-1-2.7-0.8l-1.3-1.3c3-4,2.5-9.5-1.3-12.8c-3.7-3.3-9.3-3.1-12.8,0.4c-3.5,3.5-3.6,9.1-0.4,12.8
            c3.3,3.6,8.8,4.2,12.8,1.3l1.3,1.3c-0.2,1,0.1,2,0.8,2.7l0.8,0.8H26.7c-1.5,0-2.7-1.2-2.7-2.7V34.1c0-1.5,1.2-2.6,2.7-2.7H59
            c1.3,0,2.5,1.1,2.5,2.7V73z M43.6,68.5c-1.3,1.3-3,2-4.8,2c-3.2,0-5.9-2.2-6.5-5.3c-0.6-3.1,1-6.2,3.9-7.4c2.9-1.2,6.3-0.2,8.1,2.4
            C46.1,62.7,45.8,66.2,43.6,68.5z M70.9,27.5v38.9c0,0.7-0.3,1.4-0.8,1.9c-0.5,0.5-1.2,0.8-1.9,0.8h-4l0-34.7c0-1.4-0.5-2.8-1.5-3.8
            c-0.9-1-2.5-1.5-3.8-1.5H33.5v-1.5c0-0.7,0.3-1.4,0.8-1.9c0.5-0.5,1.2-0.8,1.9-0.8h32c0.7,0,1.4,0.3,1.9,0.8
            C70.6,26.1,70.9,26.8,70.9,27.5z"/>
        <path d="M52.2,42.3H30.9c-0.4,0-0.7,0.1-1,0.4c-0.3,0.3-0.4,0.6-0.4,1l0,0c0,0.4,0,0.6,0.4,1c0.3,0.2,0.6,0.4,0.9,0.4h21.3
            c0.5,0,0.9-0.2,1.2-0.7c0.2-0.4,0.2-0.9,0-1.4C53.1,42.6,52.7,42.3,52.2,42.3z"/>
        <path d="M40.2,49h-9.3c-0.4,0-0.7,0.1-1,0.4c-0.3,0.3-0.4,0.6-0.4,1h0c0,0.4,0,0.8,0.4,0.9c0.3,0.2,0.6,0.4,1,0.4h9.3
            c0.5,0,0.9-0.2,1.2-0.7c0.2-0.4,0.2-0.9,0-1.4C41.1,49.3,40.7,49,40.2,49z"/>
    </g>
</svg>
