<svg id="图层_1" data-name="图层 1" xmlns="http://www.w3.org/2000/svg" viewBox="0 36 100 28"><defs><style>.cls-1{fill:#fff;}</style></defs><title>ico</title><path class="cls-1" d="M21.35,44.24c-4.5-3.47-10.76-2.65-15.75-2.1C2.42,45,.39,48.63.27,52.35a9.66,9.66,0,0,0,1.61,5.73c5.78-.5,12.25-1.62,17.59-5.43C22.62,50.4,24.79,46.89,21.35,44.24ZM18.57,49.4c-.81,2.31-3.1,3.48-4.75,4.05.72-.47,1.94-.77,2.25-1.41a18.5,18.5,0,0,1-4.74,2.08,9.22,9.22,0,0,1-3.84.54,3.11,3.11,0,0,0,1.14-.17c-.59-.18.33-.14.23-.34-.28,0-.56.17-.84.05,1-.33,2.23-.39,3-1a19.33,19.33,0,0,1-6,1.06c.12-.13.55,0,.47-.24-1.17,0-2.64.34-3.62,0,3.56-.22,8-.61,11.45-3.11,1.72-1.23,2.91-3.14,1-4.6-2.84-2.19-6.95-1.26-9.81-1a23.39,23.39,0,0,1,8.58-1.36h0a11,11,0,0,1,2.48.45,6.47,6.47,0,0,1,1.49.66l.26.18,0,0,0,0h0A3.37,3.37,0,0,1,18.57,49.4Z"/><path class="cls-1" d="M19.49,36.51c-.66,0-1.34.09-2,.19a23,23,0,0,0-2.84.58,22.73,22.73,0,0,0-8.3,4.24,37.09,37.09,0,0,1,12.77-1.63h0a20.07,20.07,0,0,1,4.53.83,11.82,11.82,0,0,1,2.71,1.21l.47.32.06,0,.09.06h0a6.16,6.16,0,0,1,2.1,7.5c-1.47,4.22-5.66,6.37-8.69,7.41,1.32-.85,3.55-1.41,4.12-2.58a33.72,33.72,0,0,1-8.67,3.8c-2.44.69-4.85,1.34-7,1a5.54,5.54,0,0,0,2.08-.31c-1.08-.33.6-.26.41-.62-.52-.07-1,.32-1.54.09,1.74-.61,4.09-.71,5.44-1.85-3.64,1-7.26,2.12-10.94,1.94.22-.25,1,0,.86-.44-.93,0-2,.11-3,.2,2.73,3.71,8.16,5.72,14.5,4.83,9.27-1.3,17-8.31,17.2-15.65C34.06,40.84,27.79,36.14,19.49,36.51Z"/><path class="cls-1" d="M52.36,40.27a3,3,0,0,0-1.77-.42H39.42v1.42H50.95a.76.76,0,0,1,.77.6,8.34,8.34,0,0,1,.06,1.43v6.62q0,.32,0,.44a.78.78,0,0,1-.24.5.86.86,0,0,1-.66.26H40.1v1.45H50.65a2.5,2.5,0,0,0,2.15-.88,3.36,3.36,0,0,0,.4-1.92V42.11A2.16,2.16,0,0,0,52.36,40.27Z"/><path class="cls-1" d="M41.29,49.61a1.69,1.69,0,0,1,.29-.69.77.77,0,0,1,.58-.19h7.7V47.32H42.08a2.11,2.11,0,0,0-1.73.75,3.27,3.27,0,0,0-.5,1.54Z"/><path class="cls-1" d="M42.17,45.14h7.69V43.72H42a.69.69,0,0,1-.49-.25.93.93,0,0,1-.25-.61H39.86a4.11,4.11,0,0,0,.35,1.32A2.1,2.1,0,0,0,42.17,45.14Z"/><path class="cls-1" d="M58,52.59h1.11V51.21h-.72a.71.71,0,0,1-.5-.12.92.92,0,0,1-.1-.54V44.76a1.78,1.78,0,0,0-.17-.87,1.41,1.41,0,0,0-.43-.44,2.39,2.39,0,0,0-1.21-.2H54.89v1.39h.89a.62.62,0,0,1,.49.14.9.9,0,0,1,.11.55v5.88a1.49,1.49,0,0,0,.13.68,1.62,1.62,0,0,0,.46.5A1.83,1.83,0,0,0,58,52.59Z"/><path class="cls-1" d="M61.68,49.21H60.26l-.08.84a6.18,6.18,0,0,1-.2,1,.51.51,0,0,1-.29.22v1.36a1.64,1.64,0,0,0,1.2-.47,3.57,3.57,0,0,0,.69-2Z"/><rect class="cls-1" x="54.89" y="39.94" width="3.1" height="1.39"/><path class="cls-1" d="M68.21,50.16l-.11-.95H66.71l.09.85a8.39,8.39,0,0,0,.15,1,2.29,2.29,0,0,0,.5,1,1.69,1.69,0,0,0,1.24.5V51.27a.49.49,0,0,1-.32-.24A7,7,0,0,1,68.21,50.16Z"/><path class="cls-1" d="M68.72,47.14H64.79v-.69H66.9a1.54,1.54,0,0,0,1.42-.65,2.86,2.86,0,0,0,.2-1.33V41.29a1.38,1.38,0,0,0-.41-1,1.88,1.88,0,0,0-1.37-.42H61.32a1.77,1.77,0,0,0-1.27.41,1.43,1.43,0,0,0-.41,1.08v3.12A2.31,2.31,0,0,0,60,46a1.55,1.55,0,0,0,1.14.42H63.4v.69H59.68v1.39H63.4v4.1h1.39v-4.1h3.92Zm-3.92-5.89h1.82a.45.45,0,0,1,.4.15,1.16,1.16,0,0,1,.11.6v.48H64.79Zm0,2.63h2.32v.6a.63.63,0,0,1-.11.43.67.67,0,0,1-.5.14H64.79ZM63.4,45H61.64a.71.71,0,0,1-.45-.11.51.51,0,0,1-.12-.39v-.66H63.4Zm0-2.55H61.07v-.72a.55.55,0,0,1,.12-.39.7.7,0,0,1,.49-.13H63.4Z"/><path class="cls-1" d="M71.78,51.47A6.59,6.59,0,0,0,71.9,50l0-5.45H70.67l-.08,6q0,.73-.29.73h0v1.3A1.54,1.54,0,0,0,71.78,51.47Z"/><rect class="cls-1" x="74.49" y="44.51" width="1.18" height="8.11"/><polygon class="cls-1" points="72.48 52.62 73.87 52.62 73.87 43.71 75.75 43.71 75.75 42.34 73.87 42.34 73.87 41.27 75.74 41.27 75.74 40 70.42 40 70.42 41.27 72.48 41.27 72.48 42.34 70.4 42.34 70.4 43.71 72.48 43.71 72.48 52.62"/><rect class="cls-1" x="76.64" y="44.96" width="4.16" height="1.46"/><rect class="cls-1" x="76.64" y="41.01" width="4.16" height="1.46"/><polygon class="cls-1" points="81.82 52.64 83.21 52.64 83.21 50.16 84.18 50.16 84.18 48.72 83.21 48.72 83.21 39.81 81.82 39.81 81.82 48.72 76.61 48.72 76.61 50.16 81.82 50.16 81.82 52.64"/><path class="cls-1" d="M89.09,39.83H87.69V41.1H85.83v1.47h1.87v3.49q-.54.27-.78.37a4.5,4.5,0,0,1-1.13.26v1.47q.54-.06.74-.11a9,9,0,0,0,1.18-.38v2.56a1,1,0,0,1-.23.75,1.32,1.32,0,0,1-.9.24l-.36,0v1.39l.66,0a2.46,2.46,0,0,0,1.45-.36,2,2,0,0,0,.78-1.72V46.79a9.31,9.31,0,0,1,1.54-.8V44.63a6.33,6.33,0,0,0-1.54.59V42.57h1.66V41.1H89.09Z"/><path class="cls-1" d="M99.62,52.62l0-1.4a9,9,0,0,1-1.58-.55,14.1,14.1,0,0,1-1.46-.84,20.17,20.17,0,0,0,2.17-2.08,2.69,2.69,0,0,0,.79-1.67,1.51,1.51,0,0,0-.29-.9,1.6,1.6,0,0,0-1.18-.67q-.35,0-1.85,0V42.38h3.4V41h-3.4V39.8H94.86V41h-3.4v1.39h3.4v2.08h-3.4v1.42h6a2.1,2.1,0,0,1,.61,0,.22.22,0,0,1,.14.21q0,.23-.57.88a15.07,15.07,0,0,1-2.15,2q-.72-.6-1.06-.93a12.74,12.74,0,0,1-1.19-1.33H91.6q.4.65.66,1a16.69,16.69,0,0,0,2,2.1,15.26,15.26,0,0,1-2.82,1.35v1.45a13.11,13.11,0,0,0,2-.76,17.63,17.63,0,0,0,2-1.18,18.72,18.72,0,0,0,1.84,1.09A13.23,13.23,0,0,0,99.62,52.62Z"/><path class="cls-1" d="M43.08,56.81l-.13-.14a1.71,1.71,0,0,0,.29-.48l.5-1.21h-.82l-.5,1.13a.52.52,0,0,1-.24.23,1.07,1.07,0,0,1-.51.12,1,1,0,0,1-.48-.12.52.52,0,0,1-.24-.23L40.47,55h-.82l.53,1.28.24.4a2.4,2.4,0,0,0-.35.62l-.54,1.34h.82l.51-1.28a.52.52,0,0,1,.23-.24,1.11,1.11,0,0,1,.57-.14,1.36,1.36,0,0,1,.55.11.54.54,0,0,1,.29.27L43,58.64h.82l-.66-1.58A1.43,1.43,0,0,0,43.08,56.81Z"/><rect class="cls-1" x="44.25" y="54.98" width="0.81" height="3.65"/><path class="cls-1" d="M48.73,56.41a1.32,1.32,0,0,0-.47-.17l.8-1.27h-.8l-.56.93a.68.68,0,0,1-.34.27.94.94,0,0,1-.36.07h-.71V55h-.81v3.64h.81V56.78H47.7a.88.88,0,0,1,.46.09.29.29,0,0,1,.13.26v1.51h.81V57.12A.83.83,0,0,0,48.73,56.41Z"/><path class="cls-1" d="M49.78,55.2a.78.78,0,0,0-.31.64v1.89a.77.77,0,0,0,.61.82,2.23,2.23,0,0,0,.6.09h2.4v-.53h-2.4A.49.49,0,0,1,50.4,58a.27.27,0,0,1-.13-.24v-.88h2.81V56.4H50.27v-.57q0-.31.54-.31h2.27V55H50.53A1.18,1.18,0,0,0,49.78,55.2Z"/><polygon class="cls-1" points="56.77 55.52 58.4 55.52 58.4 58.63 59.21 58.63 59.21 55.52 60.86 55.52 60.86 54.99 56.77 54.99 56.77 55.52"/><path class="cls-1" d="M61.48,55.2a.78.78,0,0,0-.31.64v1.89a.77.77,0,0,0,.61.82,2.23,2.23,0,0,0,.6.09h2.4v-.53h-2.4A.49.49,0,0,1,62.1,58,.27.27,0,0,1,62,57.8v-.88h2.81V56.4H62v-.57q0-.31.54-.31h2.27V55H62.23A1.18,1.18,0,0,0,61.48,55.2Z"/><path class="cls-1" d="M65.43,55.21a.71.71,0,0,0-.3.58v2a.74.74,0,0,0,.29.64,1.37,1.37,0,0,0,.83.23h2.86v-.53H66.4a.55.55,0,0,1-.32-.09.32.32,0,0,1-.13-.29V55.82a.25.25,0,0,1,.12-.21.64.64,0,0,1,.38-.1h2.66V55H66.17A1.17,1.17,0,0,0,65.43,55.21Z"/><polygon class="cls-1" points="72.63 56.38 70.27 56.38 70.27 54.98 69.47 54.98 69.47 58.63 70.27 58.63 70.27 56.91 72.63 56.91 72.63 58.63 73.44 58.63 73.44 54.98 72.63 54.98 72.63 56.38"/><path class="cls-1" d="M77.17,57.75q0,.27-.22.27a.23.23,0,0,1-.15,0,.73.73,0,0,1-.13-.2l-1.16-2.36a.85.85,0,0,0-.84-.46,1,1,0,0,0-.58.16.68.68,0,0,0-.29.58v2.94h.81v-3s0-.07.08-.07.14.08.22.25L76,58.11a.85.85,0,0,0,.34.35,1.31,1.31,0,0,0,.66.14,1,1,0,0,0,.64-.17.76.76,0,0,0,.31-.64V55h-.81Z"/><path class="cls-1" d="M82.06,55.23a1.26,1.26,0,0,0-.8-.24H79.41a1.29,1.29,0,0,0-.81.24.67.67,0,0,0-.27.56v2.07a.66.66,0,0,0,.27.55,1.31,1.31,0,0,0,.81.23h1.85a1.26,1.26,0,0,0,.8-.23.66.66,0,0,0,.27-.55V55.79A.68.68,0,0,0,82.06,55.23Zm-.54,2.57q0,.31-.53.31H79.67q-.53,0-.53-.31v-2q0-.32.53-.31H81q.53,0,.53.31Z"/><path class="cls-1" d="M83.52,57.69V55h-.81v2.77a.9.9,0,0,0,.08.43.62.62,0,0,0,.21.21,1.64,1.64,0,0,0,1,.24h2.22v-.53H84A.38.38,0,0,1,83.52,57.69Z"/><path class="cls-1" d="M90.21,55.23a1.26,1.26,0,0,0-.8-.24H87.56a1.29,1.29,0,0,0-.81.24.67.67,0,0,0-.27.56v2.07a.66.66,0,0,0,.27.55,1.31,1.31,0,0,0,.81.23h1.85a1.27,1.27,0,0,0,.8-.23.66.66,0,0,0,.27-.55V55.79A.68.68,0,0,0,90.21,55.23Zm-.54,2.57q0,.31-.53.31H87.82q-.53,0-.53-.31v-2q0-.32.53-.31h1.32q.53,0,.53.31Z"/><path class="cls-1" d="M95,56.68a1.49,1.49,0,0,0-.83-.21H92.57V57h1.57a.37.37,0,0,1,.25.09.25.25,0,0,1,.08.2v.53a.25.25,0,0,1-.1.21.41.41,0,0,1-.25.08H92a.42.42,0,0,1-.26-.08.24.24,0,0,1-.1-.21v-2a.27.27,0,0,1,.13-.22.63.63,0,0,1,.37-.09h2.95V55H92a1.32,1.32,0,0,0-.84.22.72.72,0,0,0-.31.58v2a.7.7,0,0,0,.28.6,1.25,1.25,0,0,0,.76.21h2.41a1.09,1.09,0,0,0,.62-.18.73.73,0,0,0,.34-.64v-.69a.47.47,0,0,0-.1-.27A.75.75,0,0,0,95,56.68Z"/><path class="cls-1" d="M99.19,55l-.86,1.4a.49.49,0,0,1-.2.17.6.6,0,0,1-.27.07.71.71,0,0,1-.28-.06.61.61,0,0,1-.28-.23L96.42,55h-.81l1.13,1.8a1.13,1.13,0,0,0,.64.41v1.44h.81V57.2a2.86,2.86,0,0,0,.39-.13,1,1,0,0,0,.45-.43L100,55Z"/></svg>
