<svg id="图层_1" data-name="图层 1" xmlns="http://www.w3.org/2000/svg" xmlns:xlink="http://www.w3.org/1999/xlink" viewBox="0 34 100 30"><defs><style>.cls-1{fill:url(#radial-gradient);}.cls-2{fill:url(#radial-gradient-2);}.cls-3{fill:#221e1f;}</style><radialGradient id="radial-gradient" cx="16.33" cy="36.8" r="29.22" gradientUnits="userSpaceOnUse"><stop offset="0" stop-color="red"/><stop offset="1" stop-color="#750000"/></radialGradient><radialGradient id="radial-gradient-2" cx="16.33" cy="36.8" r="29.21" xlink:href="#radial-gradient"/></defs><title>ico</title><path class="cls-1" d="M22.82,42.68C18,39,11.31,39.85,6,40.43c-3.4,3-5.58,6.94-5.7,10.92A10.34,10.34,0,0,0,2,57.48c6.19-.54,13.11-1.73,18.82-5.81C24.18,49.26,26.51,45.51,22.82,42.68Zm-3,5.52c-.86,2.47-3.32,3.73-5.09,4.33.77-.5,2.08-.82,2.41-1.51a19.79,19.79,0,0,1-5.08,2.22A9.87,9.87,0,0,1,8,53.82a3.32,3.32,0,0,0,1.22-.18c-.64-.2.35-.15.24-.36-.3,0-.59.18-.9.05,1-.36,2.39-.42,3.18-1.08a20.68,20.68,0,0,1-6.41,1.13c.13-.14.59,0,.51-.26-1.25,0-2.82.36-3.87,0,3.81-.24,8.51-.65,12.26-3.32,1.84-1.31,3.11-3.36,1.1-4.92-3-2.34-7.44-1.34-10.49-1.1A25,25,0,0,1,14,42.35h0a11.75,11.75,0,0,1,2.65.49,6.93,6.93,0,0,1,1.59.71l.28.19,0,0,0,0h0A3.61,3.61,0,0,1,19.86,48.19Z"/><path class="cls-2" d="M20.84,34.4c-.71,0-1.43.1-2.16.2a24.63,24.63,0,0,0-3,.62,24.32,24.32,0,0,0-8.88,4.54A39.68,39.68,0,0,1,20.43,38h0a21.47,21.47,0,0,1,4.85.89,12.65,12.65,0,0,1,2.9,1.3c.17.11.34.23.51.35l.07,0,.09.07h0c1.88,1.44,3.67,4,2.25,8-1.57,4.52-6.06,6.82-9.3,7.92,1.41-.91,3.8-1.51,4.41-2.76a36.08,36.08,0,0,1-9.27,4.06c-2.61.74-5.18,1.44-7.5,1a5.93,5.93,0,0,0,2.23-.33c-1.16-.35.64-.28.44-.67-.55-.08-1.09.34-1.65.1,1.86-.65,4.37-.76,5.82-2-3.89,1.07-7.77,2.27-11.71,2.07.24-.27,1.08,0,.92-.47-1,0-2.1.12-3.19.21C5.22,61.87,11,64,17.8,63.07c9.92-1.39,18.16-8.89,18.4-16.75C36.43,39,29.71,34,20.84,34.4Z"/><path class="cls-3" d="M41.24,41.69V40.31H52.08a2.89,2.89,0,0,1,1.72.41,2.09,2.09,0,0,1,.81,1.79v7.42a3.26,3.26,0,0,1-.39,1.86,2.42,2.42,0,0,1-2.08.85H41.91v-1.4H52.35A.83.83,0,0,0,53,51a.76.76,0,0,0,.23-.49q0-.12,0-.43V43.65a8.09,8.09,0,0,0-.06-1.39.73.73,0,0,0-.75-.58H41.24Zm.43,1.56h1.4a.9.9,0,0,0,.24.59.67.67,0,0,0,.47.24h7.58v1.37H43.92a2,2,0,0,1-1.9-.92A4,4,0,0,1,41.67,43.25Zm0,6.53a3.18,3.18,0,0,1,.48-1.49,2,2,0,0,1,1.67-.73h7.55v1.37H43.91a.75.75,0,0,0-.56.18,1.64,1.64,0,0,0-.28.67Z"/><path class="cls-3" d="M56.25,41.75V40.4h3v1.35Zm0,3.21V43.61h1a2.32,2.32,0,0,1,1.17.2,1.37,1.37,0,0,1,.42.42,1.73,1.73,0,0,1,.17.85v5.61a.9.9,0,0,0,.09.53.69.69,0,0,0,.48.12h.7v1.34H59.25a1.78,1.78,0,0,1-1-.19,1.57,1.57,0,0,1-.45-.49,1.45,1.45,0,0,1-.12-.66v-5.7a.87.87,0,0,0-.11-.53.6.6,0,0,0-.47-.14Zm9.61,1.76v.66h3.81v1.35H65.86v4H64.5v-4H60.89V47.39H64.5v-.66H62.35a1.5,1.5,0,0,1-1.11-.41,2.24,2.24,0,0,1-.38-1.54v-3a1.38,1.38,0,0,1,.39-1,1.71,1.71,0,0,1,1.23-.4h5.27a1.83,1.83,0,0,1,1.33.41,1.34,1.34,0,0,1,.39,1v3.09a2.77,2.77,0,0,1-.2,1.29,1.49,1.49,0,0,1-1.38.63Zm-5,6V51.39a.49.49,0,0,0,.28-.21,6,6,0,0,0,.19-1l.08-.81h1.37l-.1.88a3.46,3.46,0,0,1-.66,2A1.59,1.59,0,0,1,60.9,52.72Zm1.34-9.84H64.5v-1.2H62.83a.68.68,0,0,0-.47.12.54.54,0,0,0-.12.38Zm2.26,2.48V44.23H62.24v.64a.49.49,0,0,0,.12.38.69.69,0,0,0,.44.1Zm1.35-2.48h2.25v-.47a1.13,1.13,0,0,0-.1-.58.43.43,0,0,0-.39-.15H65.86Zm0,2.48h1.67a.65.65,0,0,0,.48-.13.61.61,0,0,0,.1-.42v-.58H65.86Zm1.86,4h1.35l.1.92a6.8,6.8,0,0,0,.15.85.47.47,0,0,0,.31.23v1.32a1.64,1.64,0,0,1-1.21-.49,2.22,2.22,0,0,1-.48-1,8.13,8.13,0,0,1-.15-1Z"/><path class="cls-3" d="M71.15,52.65V51.39h0q.27,0,.28-.71l.08-5.82h1.23l0,5.29a6.39,6.39,0,0,1-.12,1.43A1.5,1.5,0,0,1,71.15,52.65Zm.14-8.59V42.73h2v-1h-2V40.46h5.16v1.23H74.66v1h1.83v1.33H74.66V52.7H73.31V44.06Zm4,8.64V44.83H76.4V52.7Zm2.06-2.39v-1.4h5V40.28h1.35v8.64h.94v1.4h-.94v2.41H82.37V50.31Zm0-7.45V41.44h4v1.42Zm0,3.83V45.27h4v1.42Z"/><path class="cls-3" d="M86.21,48.37V46.95a4.36,4.36,0,0,0,1.1-.25q.23-.09.76-.36V43H86.25V41.53h1.81V40.3h1.35v1.23H91V43H89.42v2.56A6.14,6.14,0,0,1,90.91,45v1.32a9,9,0,0,0-1.49.77V50.7a1.94,1.94,0,0,1-.76,1.67,2.39,2.39,0,0,1-1.4.35l-.64,0V51.36H87a1.28,1.28,0,0,0,.88-.23,1,1,0,0,0,.22-.73V47.9a8.71,8.71,0,0,1-1.14.37Q86.74,48.31,86.21,48.37Zm5.5,4.33V51.3A14.8,14.8,0,0,0,94.45,50a16.19,16.19,0,0,1-2-2q-.26-.34-.64-1h1.56a12.36,12.36,0,0,0,1.15,1.29q.34.31,1,.9a14.61,14.61,0,0,0,2.08-1.91q.56-.64.56-.85a.22.22,0,0,0-.13-.2,2,2,0,0,0-.59,0h-5.8V44.78H95v-2h-3.3V41.42H95V40.27h1.35v1.15h3.3v1.35h-3.3v2q1.45,0,1.79,0a1.55,1.55,0,0,1,1.15.65,1.46,1.46,0,0,1,.28.88A2.61,2.61,0,0,1,98.82,48a19.56,19.56,0,0,1-2.1,2,13.67,13.67,0,0,0,1.42.82,8.75,8.75,0,0,0,1.53.53l0,1.36a12.83,12.83,0,0,1-2.25-.83,18.15,18.15,0,0,1-1.78-1.06A17.1,17.1,0,0,1,93.68,52,12.72,12.72,0,0,1,91.71,52.7Z"/><path class="cls-3" d="M41.47,55h.79l.46,1.1a.5.5,0,0,0,.23.23,1,1,0,0,0,.47.12,1,1,0,0,0,.5-.12.5.5,0,0,0,.23-.22l.49-1.1h.79L45,56.17a1.65,1.65,0,0,1-.28.46l.13.14a1.39,1.39,0,0,1,.12.24l.64,1.53h-.79l-.52-1.24A.52.52,0,0,0,44,57a1.32,1.32,0,0,0-.53-.1,1.07,1.07,0,0,0-.55.13.51.51,0,0,0-.22.24l-.5,1.24h-.79l.52-1.3a2.33,2.33,0,0,1,.34-.6L42,56.25Z"/><path class="cls-3" d="M45.93,55h.78v3.54h-.78Z"/><path class="cls-3" d="M47.12,58.54V55h.78v1.22h.69a.91.91,0,0,0,.35-.07.66.66,0,0,0,.33-.26l.54-.9h.77l-.77,1.23a1.28,1.28,0,0,1,.46.16.8.8,0,0,1,.35.69v1.47h-.78V57.07a.28.28,0,0,0-.12-.25.85.85,0,0,0-.45-.09H47.9v1.81Z"/><path class="cls-3" d="M54.49,55v.51h-2.2q-.52,0-.52.3v.55h2.72v.51H51.77v.85a.27.27,0,0,0,.12.23.48.48,0,0,0,.27.07h2.33v.51H52.16a2.17,2.17,0,0,1-.58-.09.75.75,0,0,1-.59-.8V55.83a.76.76,0,0,1,.3-.62A1.14,1.14,0,0,1,52,55Z"/><path class="cls-3" d="M58.08,55h4v.51h-1.6v3h-.78v-3H58.08Z"/><path class="cls-3" d="M65.85,55v.51h-2.2q-.52,0-.52.3v.55h2.72v.51H63.12v.85a.27.27,0,0,0,.12.23.48.48,0,0,0,.27.07h2.33v.51H63.51a2.17,2.17,0,0,1-.58-.09.75.75,0,0,1-.59-.8V55.83a.76.76,0,0,1,.3-.62,1.14,1.14,0,0,1,.73-.21Z"/><path class="cls-3" d="M70,55v.51H67.46a.62.62,0,0,0-.37.1.24.24,0,0,0-.11.2v1.85a.31.31,0,0,0,.13.28.54.54,0,0,0,.31.09H70v.51H67.27a1.33,1.33,0,0,1-.8-.23.72.72,0,0,1-.28-.62V55.78a.68.68,0,0,1,.29-.56,1.13,1.13,0,0,1,.72-.22Z"/><path class="cls-3" d="M71.17,56.35h2.29V55h.78v3.53h-.78V56.86H71.17v1.66h-.78V55h.78Z"/><path class="cls-3" d="M75.38,58.56H74.6V55.7a.66.66,0,0,1,.28-.56.93.93,0,0,1,.56-.16.82.82,0,0,1,.81.44l1.13,2.28a.71.71,0,0,0,.13.19.22.22,0,0,0,.14,0q.21,0,.21-.27V55h.78v2.71a.74.74,0,0,1-.3.62,1,1,0,0,1-.62.16,1.27,1.27,0,0,1-.64-.14.83.83,0,0,1-.33-.34l-1.07-2.18q-.12-.24-.22-.24t-.08.07Z"/><path class="cls-3" d="M79,57.78v-2a.65.65,0,0,1,.27-.54A1.25,1.25,0,0,1,80,55h1.79a1.22,1.22,0,0,1,.78.23.66.66,0,0,1,.26.54v2a.64.64,0,0,1-.26.53,1.23,1.23,0,0,1-.78.23H80a1.27,1.27,0,0,1-.78-.23A.64.64,0,0,1,79,57.78Zm1.3.25h1.28q.52,0,.52-.31V55.82q0-.31-.52-.31H80.28q-.52,0-.52.31v1.91Q79.77,58,80.28,58Z"/><path class="cls-3" d="M86.59,58v.51H84.44a1.59,1.59,0,0,1-.92-.24.6.6,0,0,1-.2-.2.88.88,0,0,1-.08-.41V55H84v2.61a.37.37,0,0,0,.42.42Z"/><path class="cls-3" d="M86.88,57.78v-2a.65.65,0,0,1,.27-.54,1.25,1.25,0,0,1,.78-.23h1.79a1.22,1.22,0,0,1,.78.23.66.66,0,0,1,.26.54v2a.64.64,0,0,1-.26.53,1.23,1.23,0,0,1-.78.23H87.93a1.27,1.27,0,0,1-.78-.23A.64.64,0,0,1,86.88,57.78Zm1.3.25h1.28q.52,0,.52-.31V55.82q0-.31-.52-.31H88.18q-.52,0-.52.31v1.91Q87.67,58,88.18,58Z"/><path class="cls-3" d="M95.26,55v.51H92.4a.61.61,0,0,0-.36.09.26.26,0,0,0-.13.22v1.94a.24.24,0,0,0,.09.2.4.4,0,0,0,.25.08h2a.4.4,0,0,0,.25-.08.24.24,0,0,0,.1-.21v-.52a.24.24,0,0,0-.08-.19.36.36,0,0,0-.24-.09H92.79v-.51h1.54a1.44,1.44,0,0,1,.8.2.73.73,0,0,1,.19.19.45.45,0,0,1,.09.26v.67a.71.71,0,0,1-.33.62,1.05,1.05,0,0,1-.6.17H92.15a1.21,1.21,0,0,1-.74-.2.68.68,0,0,1-.28-.58v-2a.7.7,0,0,1,.3-.56,1.28,1.28,0,0,1,.81-.22Z"/><path class="cls-3" d="M95.74,55h.78l.85,1.3a.6.6,0,0,0,.27.22.69.69,0,0,0,.27.06.58.58,0,0,0,.26-.07.47.47,0,0,0,.19-.16L99.21,55H100l-1,1.6a1,1,0,0,1-.44.42l-.38.12v1.4h-.78v-1.4a1.1,1.1,0,0,1-.62-.4Z"/></svg>
